Coordinates
version=1
nRows=6
nColumns=46
inDegrees=yes

Units are S.I. units (second, meters, Newtons, ...)
Angles are in degrees.

endheader
time	pelvis_tilt	pelvis_list	pelvis_rotation	pelvis_tx	pelvis_ty	pelvis_tz	bb_angle	bb_tx	bb_ty	bb_tz	hip_flexion_r	hip_adduction_r	hip_rotation_r	knee_angle_r	knee_angle_r_beta	ankle_angle_r	subtalar_angle_r	mtp_angle_r	crank_angle_r	hip_flexion_l	hip_adduction_l	hip_rotation_l	knee_angle_l	knee_angle_l_beta	ankle_angle_l	subtalar_angle_l	mtp_angle_l	crank_angle_l	lumbar_extension	lumbar_bending	lumbar_rotation	arm_flex_r	arm_add_r	arm_rot_r	elbow_flex_r	pro_sup_r	wrist_flex_r	wrist_dev_r	arm_flex_l	arm_add_l	arm_rot_l	elbow_flex_l	pro_sup_l	wrist_flex_l	wrist_dev_l
      7.50000000	    -33.17284902	     -5.22014416	      9.22635436	      0.27446239	      1.02313006	     -0.22828985	      0.00000000	      0.50000000	      0.00000000	      0.25000000	     55.56588411	     -9.62962080	     -6.53717456	     68.99648098	      1.20421577	    -36.42434944	     -5.02335780	      0.00000000	      0.00000000	     83.65189843	     -0.68448415	      6.71489146	     79.51570693	      1.38781089	     10.51970116	     -1.77125883	      0.00000000	      0.00000000	    -37.28431809	     10.77186774	    -16.60682390	     65.85649394	      2.24362209	     47.97201745	     40.36267997	     51.47274424	      0.00000000	      0.00000000	     46.10733896	    -48.85004343	     38.62350113	     88.24810027	     52.07693392	      0.00000000	      0.00000000
      7.50500000	    -32.98250671	     -5.13612128	      8.73299617	      0.27488877	      1.02331923	     -0.22907194	      0.00000000	      0.50000000	      0.00000000	      0.25000000	     56.66945128	     -9.50033757	     -5.83363278	     71.36208505	      1.24550335	    -36.64430809	     -5.09034033	      0.00000000	      0.00000000	     81.41434762	     -1.19486530	      6.32613764	     76.48609955	      1.33493427	     10.79700961	     -1.99603671	      0.00000000	      0.00000000	    -37.48262469	     10.72836470	    -16.20532431	     66.24931775	      2.08264831	     48.42908933	     40.22427195	     51.49505369	      0.00000000	      0.00000000	     45.67466607	    -48.49154613	     38.24899273	     88.11779759	     52.00539693	      0.00000000	      0.00000000
      7.51000000	    -32.87718365	     -4.99523010	      8.21977999	      0.27523689	      1.02312494	     -0.23014578	      0.00000000	      0.50000000	      0.00000000	      0.25000000	     57.90115378	     -9.48700596	     -5.16229933	     73.74138910	      1.28703003	    -36.79092306	     -5.19939324	      0.00000000	      0.00000000	     79.15130920	     -1.46947907	      6.05660702	     73.33329458	      1.27990744	     10.73804844	     -2.88019287	      0.00000000	      0.00000000	    -37.49297967	     10.80802330	    -16.49221014	     68.54442394	      1.26488085	     56.60966516	     38.88823612	     52.37047288	      0.00000000	      0.00000000	     42.70023944	    -47.68059536	     33.69348332	     88.44865714	     51.60582266	      0.00000000	      0.00000000
      7.51500000	    -32.66292951	     -4.88419205	      7.67464035	      0.27584218	      1.02268479	     -0.23085262	      0.00000000	      0.50000000	      0.00000000	      0.25000000	     59.03127594	     -9.36373740	     -4.52258797	     76.18934009	      1.32975484	    -36.71309926	     -5.45974396	      0.00000000	      0.00000000	     76.80938387	     -1.93368412	      5.68158580	     70.27605216	      1.22654850	     10.95976673	     -3.34243982	      0.00000000	      0.00000000	    -37.62558426	     10.68387623	    -16.05702704	     68.81730206	      1.16080933	     56.80689246	     38.73557786	     52.36946539	      0.00000000	      0.00000000	     42.32354457	    -47.31557037	     33.58298333	     88.35346960	     51.57941176	      0.00000000	      0.00000000
      7.52000000	    -32.47769007	     -4.68677201	      7.16629154	      0.27627932	      1.02197549	     -0.23206314	      0.00000000	      0.50000000	      0.00000000	      0.25000000	     60.20889138	     -9.39407837	     -3.86770223	     78.70915590	      1.37373392	    -36.36163066	     -5.79811268	      0.00000000	      0.00000000	     74.43648868	     -2.15676514	      5.33337955	     67.17749343	      1.17246844	     10.89877718	     -4.02874616	      0.00000000	      0.00000000	    -37.68453949	     10.52460759	    -15.65001461	     69.10545775	      0.89521565	     57.27905827	     38.58439301	     52.41219925	      0.00000000	      0.00000000	     42.02377608	    -46.74554923	     33.18953532	     88.14384149	     51.50487460	      0.00000000	      0.00000000
      7.52500000	    -32.30931795	     -4.68323608	      6.59323264	      0.27676811	      1.02100208	     -0.23302394	      0.00000000	      0.50000000	      0.00000000	      0.25000000	     61.39652352	     -9.19953759	     -3.33359457	     81.06027249	      1.41476865	    -36.11764385	     -5.98254074	      0.00000000	      0.00000000	     72.13446986	     -2.50477245	      5.17061536	     64.11102485	      1.11894847	     10.52207119	     -5.16922518	      0.00000000	      0.00000000	    -37.62945343	     10.54327640	    -15.06092459	     70.13044321	     -0.07117217	     61.01233320	     38.55524756	     52.94804463	      0.00000000	      0.00000000	     41.10093476	    -44.93752647	     30.97490984	     87.01372752	     51.10539231	      0.00000000	      0.00000000
